<svg width="50" height="50" viewBox="0 0 50 50" fill="none" xmlns="http://www.w3.org/2000/svg">
<path d="M24.1935 19.355V24.1937H50V19.355H24.1935ZM48.3871 22.5808H25.8064V20.9679H48.3871V22.5808Z" fill="#2C2149"/>
<path d="M25.8065 17.7418H27.4194V16.5257L37.0968 9.08211L46.7742 16.5257V17.7418H48.3871V15.7321L37.0968 7.04663L25.8065 15.7321V17.7418Z" fill="#2C2149"/>
<path d="M50 41.1289C50 38.866 49.2218 36.6474 47.8081 34.8805L47.1016 33.9974C46.6282 33.4047 45.921 33.0644 45.1613 33.0644C44.5589 33.0644 43.9944 33.2861 43.5484 33.67V32.2579H38.7097V37.0966H41.1766C40.6202 38.3611 40.3226 39.7361 40.3226 41.1289C40.3226 43.5216 42.0702 45.5087 44.3548 45.895V48.387H40.3226V41.1289V40.3224H33.871V48.387H25.8065V45.895C28.0911 45.5095 29.8387 43.5224 29.8387 41.1289C29.8387 38.866 29.0605 36.6474 27.6468 34.8805L26.9403 33.9974C26.4669 33.4047 25.7597 33.0644 25 33.0644C24.2403 33.0644 23.5331 33.4047 23.0605 33.9966L22.3532 34.8805C20.9395 36.6474 20.1613 38.866 20.1613 41.1289C20.1613 43.5216 21.9089 45.5087 24.1935 45.895V48.387H16.9355V40.3224H10.4839V48.387H5.64516V45.895C7.92984 45.5095 9.67742 43.5224 9.67742 41.1289C9.67742 39.116 9.05806 37.1402 7.92742 35.4837H8.87097V30.645H4.03226V33.2136C3.59355 33.3644 3.19677 33.6232 2.89919 33.9966L2.19194 34.8805C0.778226 36.6474 0 38.866 0 41.1289C0 43.5216 1.74758 45.5087 4.03226 45.895V48.387H1.6129V45.9676H0V49.9999H4.03226H5.64516H24.1935H25.8065H44.3548H45.9677H50V45.9676H48.3871V48.387H45.9677V45.895C48.2524 45.5087 50 43.5216 50 41.1289ZM5.64516 32.2579H7.25806V33.8708H6.65242C6.37177 33.5668 6.02823 33.3458 5.64516 33.2136V32.2579ZM4.03226 40.3224V44.2402C2.64516 43.8797 1.6129 42.6281 1.6129 41.1289C1.6129 39.2305 2.26613 37.37 3.45081 35.8886L4.15806 35.0039C4.325 34.7958 4.57258 34.6773 4.83871 34.6773C5.10484 34.6773 5.35242 34.7958 5.51935 35.0047L6.22661 35.8886C7.41129 37.37 8.06452 39.2305 8.06452 41.1289C8.06452 42.6281 7.03226 43.8797 5.64516 44.2402V40.3224H4.03226ZM15.3226 48.387H12.0968V41.9353H15.3226V48.387ZM24.1935 40.3224V44.2402C22.8065 43.8797 21.7742 42.6281 21.7742 41.1289C21.7742 39.2305 22.4274 37.37 23.6121 35.8886L24.3194 35.0039C24.4863 34.7958 24.7339 34.6773 25 34.6773C25.2661 34.6773 25.5137 34.7958 25.6806 35.0047L26.3879 35.8886C27.5726 37.37 28.2258 39.2305 28.2258 41.1289C28.2258 42.6281 27.1935 43.8797 25.8065 44.2402V40.3224H24.1935ZM38.7097 48.387H35.4839V41.9353H38.7097V48.387ZM40.3226 35.4837V33.8708H41.9355V35.4837H40.3226ZM44.3548 40.3224V44.2402C42.9677 43.8797 41.9355 42.6281 41.9355 41.1289C41.9355 39.2305 42.5887 37.37 43.7734 35.8886L44.4806 35.0039C44.6476 34.7958 44.8952 34.6773 45.1613 34.6773C45.4274 34.6773 45.675 34.7958 45.8419 35.0047L46.5492 35.8886C47.7339 37.37 48.3871 39.2305 48.3871 41.1289C48.3871 42.6281 47.3548 43.8797 45.9677 44.2402V40.3224H44.3548Z" fill="#2C2149"/>
<path d="M27.4194 25.8064H25.8065V32.258H27.4194V25.8064Z" fill="#2C2149"/>
<path d="M48.3871 25.8064H46.7742V32.258H48.3871V25.8064Z" fill="#2C2149"/>
<path d="M43.5484 25.8064H38.7097V30.6451H43.5484V25.8064ZM41.9355 29.0322H40.3226V27.4193H41.9355V29.0322Z" fill="#2C2149"/>
<path d="M35.4839 25.8064H30.6451V30.6451H35.4839V25.8064ZM33.8709 29.0322H32.258V27.4193H33.8709V29.0322Z" fill="#2C2149"/>
<path d="M15.3226 11.2903H10.4839V16.129H15.3226V11.2903ZM13.7097 14.5161H12.0968V12.9032H13.7097V14.5161Z" fill="#2C2149"/>
<path d="M21.7742 11.2903H16.9355V16.129H21.7742V11.2903ZM20.1613 14.5161H18.5484V12.9032H20.1613V14.5161Z" fill="#2C2149"/>
<path d="M8.871 11.2903H4.03229V16.129H8.871V11.2903ZM7.25809 14.5161H5.64519V12.9032H7.25809V14.5161Z" fill="#2C2149"/>
<path d="M15.3226 17.7419H10.4839V22.5807H15.3226V17.7419ZM13.7097 20.9677H12.0968V19.3548H13.7097V20.9677Z" fill="#2C2149"/>
<path d="M21.7742 17.7419H16.9355V22.5807H21.7742V17.7419ZM20.1613 20.9677H18.5484V19.3548H20.1613V20.9677Z" fill="#2C2149"/>
<path d="M8.871 17.7419H4.03229V22.5807H8.871V17.7419ZM7.25809 20.9677H5.64519V19.3548H7.25809V20.9677Z" fill="#2C2149"/>
<path d="M15.3226 24.1936H10.4839V29.0323H15.3226V24.1936ZM13.7097 27.4194H12.0968V25.8065H13.7097V27.4194Z" fill="#2C2149"/>
<path d="M21.7742 24.1936H16.9355V29.0323H21.7742V24.1936ZM20.1613 27.4194H18.5484V25.8065H20.1613V27.4194Z" fill="#2C2149"/>
<path d="M4.03229 29.0323H8.871V24.1936H4.03229V29.0323ZM5.64519 25.8065H7.25809V27.4194H5.64519V25.8065Z" fill="#2C2149"/>
<path d="M10.4839 35.4837H15.3226V30.645H10.4839V35.4837ZM12.0968 32.2579H13.7097V33.8708H12.0968V32.2579Z" fill="#2C2149"/>
<path d="M16.9355 35.4837H21.7742V30.645H16.9355V35.4837ZM18.5484 32.2579H20.1613V33.8708H18.5484V32.2579Z" fill="#2C2149"/>
<path d="M30.6451 37.0968H35.4839V32.2581H30.6451V37.0968ZM32.258 33.871H33.8709V35.4839H32.258V33.871Z" fill="#2C2149"/>
<path d="M1.6129 9.67736H24.1935V13.7096H25.8064V8.06445H0V34.6774H1.6129V9.67736Z" fill="#2C2149"/>
<path d="M4.03228 4.83871H21.7742V6.45161H23.3871V3.22581H21.7742V0H4.03228V3.22581H2.41937V6.45161H4.03228V4.83871ZM5.64518 1.6129H20.1613V3.22581H5.64518V1.6129Z" fill="#2C2149"/>
</svg>
