<svg width="50" height="50" viewBox="0 0 50 50" fill="none" xmlns="http://www.w3.org/2000/svg">
<mask id="path-1-inside-1_63_583" fill="white">
<path d="M36.7188 1.5625H11.7188C11.0977 1.56435 10.5027 1.81188 10.0635 2.25102C9.62438 2.69015 9.37685 3.28522 9.375 3.90625V20.3125H6.25C6.15094 20.311 6.0526 20.3296 5.96094 20.3672L2.05469 21.9297C1.90932 21.9876 1.78469 22.0878 1.69694 22.2173C1.60918 22.3469 1.56235 22.4998 1.5625 22.6562V33.5938C1.56317 33.7224 1.59561 33.8489 1.65694 33.9621C1.71827 34.0752 1.80659 34.1714 1.91406 34.2422L4.26563 35.8047C4.39205 35.8916 4.54192 35.9379 4.69531 35.9375H9.375V46.0938C9.37685 46.7148 9.62438 47.3098 10.0635 47.749C10.5027 48.1881 11.0977 48.4356 11.7188 48.4375H36.7188C37.3398 48.4356 37.9348 48.1881 38.374 47.749C38.8131 47.3098 39.0606 46.7148 39.0625 46.0938V3.90625C39.0606 3.28522 38.8131 2.69015 38.374 2.25102C37.9348 1.81188 37.3398 1.56435 36.7188 1.5625ZM9.29687 26.5625H9.375V34.375H4.92969L3.125 33.1719V23.1875L6.39844 21.875H15.625C16.0394 21.875 16.4368 22.0396 16.7299 22.3326C17.0229 22.6257 17.1875 23.0231 17.1875 23.4375C17.1875 23.8519 17.0229 24.2493 16.7299 24.5424C16.4368 24.8354 16.0394 25 15.625 25H8.59375C8.38655 25 8.18784 25.0823 8.04132 25.2288C7.89481 25.3753 7.8125 25.574 7.8125 25.7812C7.81065 26.4023 7.56312 26.9973 7.12398 27.4365C6.68485 27.8756 6.08978 28.1231 5.46875 28.125V29.6875C6.36891 29.6864 7.24116 29.3749 7.93848 28.8057C8.6358 28.2364 9.11555 27.4442 9.29687 26.5625ZM37.5 46.0938C37.5 46.3009 37.4177 46.4997 37.2712 46.6462C37.1247 46.7927 36.9259 46.875 36.7188 46.875H11.7188C11.5115 46.875 11.3128 46.7927 11.1663 46.6462C11.0198 46.4997 10.9375 46.3009 10.9375 46.0938V26.5625H15.625C16.4538 26.5625 17.2487 26.2333 17.8347 25.6472C18.4208 25.0612 18.75 24.2663 18.75 23.4375C18.75 22.6087 18.4208 21.8138 17.8347 21.2278C17.2487 20.6417 16.4538 20.3125 15.625 20.3125H10.9375V3.90625C10.9375 3.69905 11.0198 3.50034 11.1663 3.35382C11.3128 3.20731 11.5115 3.125 11.7188 3.125H36.7188C36.9259 3.125 37.1247 3.20731 37.2712 3.35382C37.4177 3.50034 37.5 3.69905 37.5 3.90625V46.0938Z"/>
</mask>
<path d="M11.7188 1.5625V-6.4375H11.7068L11.6949 -6.43746L11.7188 1.5625ZM9.375 3.90625L1.37504 3.88236L1.375 3.8943V3.90625H9.375ZM9.375 20.3125V28.3125H17.375V20.3125H9.375ZM6.25 20.3125L6.12729 28.3116L6.18864 28.3125H6.25V20.3125ZM5.96094 20.3672L8.93206 27.795L8.96471 27.7819L8.99725 27.7686L5.96094 20.3672ZM2.05469 21.9297L5.01469 29.362L5.02581 29.3575L2.05469 21.9297ZM1.5625 22.6562H9.5625L9.5625 22.6485L1.5625 22.6562ZM1.5625 33.5938H-6.4375V33.6144L-6.43739 33.6351L1.5625 33.5938ZM1.91406 34.2422L6.34144 27.579L6.32772 27.5699L6.31396 27.5608L1.91406 34.2422ZM4.26563 35.8047L8.79607 29.2111L8.74481 29.1759L8.693 29.1415L4.26563 35.8047ZM4.69531 35.9375V27.9375H4.68546L4.6756 27.9375L4.69531 35.9375ZM9.375 35.9375H17.375V27.9375H9.375V35.9375ZM9.375 46.0938H1.375V46.1057L1.37504 46.1176L9.375 46.0938ZM11.7188 48.4375L11.6949 56.4375L11.7068 56.4375H11.7188V48.4375ZM36.7188 48.4375V56.4375H36.7307L36.7426 56.4375L36.7188 48.4375ZM39.0625 46.0938L47.0625 46.1176L47.0625 46.1057V46.0938H39.0625ZM39.0625 3.90625H47.0625V3.8943L47.0625 3.88236L39.0625 3.90625ZM9.375 26.5625H17.375V18.5625H9.375V26.5625ZM9.375 34.375V42.375H17.375V34.375H9.375ZM4.92969 34.375L0.492084 41.0314L2.50748 42.375H4.92969V34.375ZM3.125 33.1719H-4.875V37.4533L-1.3126 39.8283L3.125 33.1719ZM3.125 23.1875L0.147764 15.7621L-4.875 17.776V23.1875H3.125ZM6.39844 21.875V13.875H4.85436L3.4212 14.4496L6.39844 21.875ZM7.8125 25.7812L15.8125 25.8051L15.8125 25.7932V25.7812H7.8125ZM5.46875 28.125L5.44486 20.125L-2.53125 20.1489V28.125H5.46875ZM5.46875 29.6875H-2.53125V37.6976L5.47885 37.6875L5.46875 29.6875ZM10.9375 26.5625V18.5625H2.9375V26.5625H10.9375ZM10.9375 20.3125H2.9375V28.3125H10.9375V20.3125ZM11.7188 3.125V11.125V3.125ZM36.7188 -6.4375H11.7188V9.5625H36.7188V-6.4375ZM11.6949 -6.43746C8.96038 -6.4293 6.34024 -5.33941 4.40666 -3.40584L15.7204 7.90787C14.6651 8.96317 13.2351 9.55801 11.7426 9.56246L11.6949 -6.43746ZM4.40666 -3.40584C2.47309 -1.47226 1.3832 1.14788 1.37504 3.88236L17.375 3.93014C17.3705 5.42255 16.7757 6.85257 15.7204 7.90787L4.40666 -3.40584ZM1.375 3.90625V20.3125H17.375V3.90625H1.375ZM9.375 12.3125H6.25V28.3125H9.375V12.3125ZM6.37271 12.3134C5.19106 12.2953 4.01801 12.5172 2.92463 12.9658L8.99725 27.7686C8.08718 28.1419 7.11082 28.3266 6.12729 28.3116L6.37271 12.3134ZM2.98981 12.9394L-0.916437 14.5019L5.02581 29.3575L8.93206 27.795L2.98981 12.9394ZM-0.905308 14.4974C-2.53922 15.1482 -3.94006 16.2745 -4.92641 17.7305L8.32029 26.7041C7.50945 27.9011 6.35787 28.827 5.01468 29.3619L-0.905308 14.4974ZM-4.92641 17.7305C-5.91277 19.1866 -6.4392 20.9053 -6.4375 22.664L9.5625 22.6485C9.5639 24.0943 9.13114 25.5071 8.32029 26.7041L-4.92641 17.7305ZM-6.4375 22.6562V33.5938H9.5625V22.6562H-6.4375ZM-6.43739 33.6351C-6.42991 35.0815 -6.06528 36.5036 -5.37592 37.7751L8.68979 30.1491C9.2565 31.1943 9.55624 32.3634 9.56239 33.5524L-6.43739 33.6351ZM-5.37592 37.7751C-4.68657 39.0465 -3.69382 40.1281 -2.48583 40.9236L6.31396 27.5608C7.30701 28.2148 8.12311 29.1039 8.68979 30.1491L-5.37592 37.7751ZM-2.51332 40.9054L-0.161754 42.4679L8.693 29.1415L6.34144 27.579L-2.51332 40.9054ZM-0.264817 42.3983C1.20042 43.405 2.93736 43.9419 4.71503 43.9375L4.6756 27.9375C6.14648 27.9339 7.58368 28.3781 8.79607 29.2111L-0.264817 42.3983ZM4.69531 43.9375H9.375V27.9375H4.69531V43.9375ZM1.375 35.9375V46.0938H17.375V35.9375H1.375ZM1.37504 46.1176C1.3832 48.8521 2.47309 51.4723 4.40666 53.4058L15.7204 42.0921C16.7757 43.1474 17.3705 44.5774 17.375 46.0699L1.37504 46.1176ZM4.40666 53.4058C6.34024 55.3394 8.96039 56.4293 11.6949 56.4375L11.7426 40.4375C13.2351 40.442 14.6651 41.0368 15.7204 42.0921L4.40666 53.4058ZM11.7188 56.4375H36.7188V40.4375H11.7188V56.4375ZM36.7426 56.4375C39.4771 56.4293 42.0973 55.3394 44.0308 53.4058L32.7171 42.0921C33.7724 41.0368 35.2024 40.442 36.6949 40.4375L36.7426 56.4375ZM44.0308 53.4058C45.9644 51.4723 47.0543 48.8521 47.0625 46.1176L31.0625 46.0699C31.067 44.5774 31.6618 43.1474 32.7171 42.0921L44.0308 53.4058ZM47.0625 46.0938V3.90625H31.0625V46.0938H47.0625ZM47.0625 3.88236C47.0543 1.14788 45.9644 -1.47226 44.0308 -3.40584L32.7171 7.90787C31.6618 6.85257 31.067 5.42255 31.0625 3.93014L47.0625 3.88236ZM44.0308 -3.40584C42.0973 -5.33941 39.4771 -6.4293 36.7426 -6.43746L36.6949 9.56246C35.2024 9.55801 33.7724 8.96317 32.7171 7.90787L44.0308 -3.40584ZM9.29687 34.5625H9.375V18.5625H9.29687V34.5625ZM1.375 26.5625V34.375H17.375V26.5625H1.375ZM9.375 26.375H4.92969V42.375H9.375V26.375ZM9.36729 27.7186L7.5626 26.5155L-1.3126 39.8283L0.492084 41.0314L9.36729 27.7186ZM11.125 33.1719V23.1875H-4.875V33.1719H11.125ZM6.10224 30.6129L9.37567 29.3004L3.4212 14.4496L0.147764 15.7621L6.10224 30.6129ZM6.39844 29.875H15.625V13.875H6.39844V29.875ZM15.625 29.875C13.9177 29.875 12.2803 29.1968 11.073 27.9895L22.3867 16.6758C20.5934 14.8825 18.1611 13.875 15.625 13.875V29.875ZM11.073 27.9895C9.86574 26.7822 9.1875 25.1448 9.1875 23.4375H25.1875C25.1875 20.9014 24.18 18.4691 22.3867 16.6758L11.073 27.9895ZM9.1875 23.4375C9.1875 21.7302 9.86574 20.0928 11.073 18.8855L22.3867 30.1992C24.18 28.4059 25.1875 25.9736 25.1875 23.4375H9.1875ZM11.073 18.8855C12.2803 17.6782 13.9177 17 15.625 17V33C18.1611 33 20.5934 31.9925 22.3867 30.1992L11.073 18.8855ZM15.625 17H8.59375V33H15.625V17ZM8.59375 17C6.26483 17 4.03128 17.9252 2.38447 19.572L13.6982 30.8857C12.3444 32.2395 10.5083 33 8.59375 33V17ZM2.38447 19.572C0.737663 21.2188 -0.1875 23.4523 -0.1875 25.7812H15.8125C15.8125 27.6958 15.052 29.5319 13.6982 30.8857L2.38447 19.572ZM-0.187464 25.7574C-0.183007 24.265 0.411823 22.8349 1.46713 21.7796L12.7808 33.0933C14.7144 31.1598 15.8043 28.5396 15.8125 25.8051L-0.187464 25.7574ZM1.46713 21.7796C2.52243 20.7243 3.95245 20.1295 5.44486 20.125L5.49264 36.125C8.22711 36.1168 10.8473 35.0269 12.7808 33.0933L1.46713 21.7796ZM-2.53125 28.125V29.6875H13.4688V28.125H-2.53125ZM5.47885 37.6875C8.21923 37.684 10.8746 36.7359 12.9975 35.003L2.87946 22.6084C3.60768 22.0139 4.51859 21.6887 5.45865 21.6875L5.47885 37.6875ZM12.9975 35.003C15.1203 33.27 16.5809 30.8582 17.1329 28.174L1.46086 24.951C1.65022 24.0302 2.15124 23.2029 2.87946 22.6084L12.9975 35.003ZM29.5 46.0938C29.5 44.1792 30.2605 42.3431 31.6143 40.9893L42.928 52.303C44.5749 50.6562 45.5 48.4227 45.5 46.0938H29.5ZM31.6143 40.9893C32.9681 39.6355 34.8042 38.875 36.7188 38.875V54.875C39.0477 54.875 41.2812 53.9499 42.928 52.303L31.6143 40.9893ZM36.7188 38.875H11.7188V54.875H36.7188V38.875ZM11.7188 38.875C13.6333 38.875 15.4694 39.6355 16.8232 40.9893L5.50947 52.303C7.15628 53.9498 9.38983 54.875 11.7188 54.875V38.875ZM16.8232 40.9893C18.177 42.3431 18.9375 44.1792 18.9375 46.0938H2.9375C2.9375 48.4227 3.86266 50.6562 5.50947 52.303L16.8232 40.9893ZM18.9375 46.0938V26.5625H2.9375V46.0938H18.9375ZM10.9375 34.5625H15.625V18.5625H10.9375V34.5625ZM15.625 34.5625C18.5755 34.5625 21.4052 33.3904 23.4916 31.3041L12.1779 19.9904C13.0921 19.0761 14.3321 18.5625 15.625 18.5625V34.5625ZM23.4916 31.3041C25.5779 29.2177 26.75 26.388 26.75 23.4375H10.75C10.75 22.1446 11.2636 20.9046 12.1779 19.9904L23.4916 31.3041ZM26.75 23.4375C26.75 20.487 25.5779 17.6573 23.4916 15.5709L12.1779 26.8846C11.2636 25.9704 10.75 24.7304 10.75 23.4375H26.75ZM23.4916 15.5709C21.4052 13.4846 18.5755 12.3125 15.625 12.3125V28.3125C14.3321 28.3125 13.0921 27.7989 12.1779 26.8846L23.4916 15.5709ZM15.625 12.3125H10.9375V28.3125H15.625V12.3125ZM18.9375 20.3125V3.90625H2.9375V20.3125H18.9375ZM18.9375 3.90625C18.9375 5.82079 18.177 7.6569 16.8232 9.01068L5.50947 -2.30303C3.86267 -0.656231 2.9375 1.57731 2.9375 3.90625H18.9375ZM16.8232 9.01068C15.4694 10.3645 13.6333 11.125 11.7188 11.125V-4.875C9.38981 -4.875 7.15627 -3.94983 5.50947 -2.30303L16.8232 9.01068ZM11.7188 11.125H36.7188V-4.875H11.7188V11.125ZM36.7188 11.125C34.8042 11.125 32.9681 10.3645 31.6143 9.01068L42.928 -2.30303C41.2812 -3.94984 39.0477 -4.875 36.7188 -4.875V11.125ZM31.6143 9.01068C30.2605 7.65689 29.5 5.82077 29.5 3.90625H45.5C45.5 1.57733 44.5748 -0.656218 42.928 -2.30303L31.6143 9.01068ZM29.5 3.90625V46.0938H45.5V3.90625H29.5Z" fill="#2C2149" mask="url(#path-1-inside-1_63_583)"/>
<mask id="path-3-inside-2_63_583" fill="white">
<path d="M24.2188 15.625C24.426 15.6249 24.6247 15.5426 24.7711 15.396L29.1907 10.9765L28.086 9.87183L24.2188 13.739L22.561 12.0812L21.4563 13.1859L23.6665 15.396C23.8129 15.5426 24.0116 15.6249 24.2188 15.625Z"/>
</mask>
<path d="M24.7711 15.396L19.1143 9.73919L19.1134 9.74004L24.7711 15.396ZM29.1907 10.9765L34.8475 16.6334L40.5044 10.9765L34.8475 5.31966L29.1907 10.9765ZM28.086 9.87183L33.7428 4.21498L28.086 -1.44189L22.4291 4.21497L28.086 9.87183ZM24.2188 13.739L18.5619 19.3959L24.2188 25.0527L29.8757 19.3959L24.2188 13.739ZM22.561 12.0812L28.2178 6.42435L22.561 0.767491L16.9041 6.42435L22.561 12.0812ZM21.4563 13.1859L15.7994 7.52904L10.1426 13.1859L15.7994 18.8427L21.4563 13.1859ZM23.6665 15.396L29.3242 9.74004L29.3233 9.73919L23.6665 15.396ZM24.2205 23.625C26.5492 23.6245 28.7824 22.699 30.4289 21.052L19.1134 9.74004C20.4669 8.38616 22.3027 7.62536 24.2171 7.62495L24.2205 23.625ZM30.428 21.0529L34.8475 16.6334L23.5338 5.31966L19.1143 9.73919L30.428 21.0529ZM34.8475 5.31966L33.7428 4.21498L22.4291 15.5287L23.5338 16.6334L34.8475 5.31966ZM22.4291 4.21497L18.5619 8.08216L29.8757 19.3959L33.7428 15.5287L22.4291 4.21497ZM29.8757 8.08216L28.2178 6.42435L16.9041 17.7381L18.5619 19.3959L29.8757 8.08216ZM16.9041 6.42435L15.7994 7.52904L27.1132 18.8427L28.2178 17.7381L16.9041 6.42435ZM15.7994 18.8427L18.0096 21.0529L29.3233 9.73919L27.1132 7.52904L15.7994 18.8427ZM18.0087 21.052C19.6552 22.699 21.8884 23.6245 24.2171 23.625L24.2205 7.62495C26.1349 7.62536 27.9707 8.38616 29.3242 9.74004L18.0087 21.052Z" fill="#2C2149" mask="url(#path-3-inside-2_63_583)"/>
<path d="M16.5303 8.16929C16.4484 8.29563 16.4053 8.44318 16.4063 8.59374V9.10155V13.6016C16.4063 13.6022 16.4063 13.6028 16.4063 13.6035C16.4062 14.595 16.6163 15.5753 17.0227 16.4797C17.023 16.4804 17.0233 16.481 17.0236 16.4817C17.4303 17.3859 18.024 18.1936 18.7656 18.8516L16.8672 7.8828C16.7294 7.94336 16.6122 8.04295 16.5303 8.16929ZM16.5303 8.16929L17.1773 8.58878L16.5303 8.16929Z" stroke="#2C2149" stroke-width="8"/>
<mask id="path-6-inside-3_63_583" fill="white">
<path d="M47.6562 17.1875H45.3125V14.8438C45.3125 14.2221 45.0656 13.626 44.626 13.1865C44.1865 12.7469 43.5904 12.5 42.9688 12.5C42.3471 12.5 41.751 12.7469 41.3115 13.1865C40.8719 13.626 40.625 14.2221 40.625 14.8438V41.4062C40.6251 41.4695 40.633 41.5324 40.6484 41.5938L42.2109 47.8438C42.2533 48.0127 42.3508 48.1626 42.4881 48.2698C42.6254 48.3769 42.7946 48.4351 42.9688 48.4351C43.1429 48.4351 43.3121 48.3769 43.4494 48.2698C43.5867 48.1626 43.6842 48.0127 43.7266 47.8438L45.2891 41.5938C45.3045 41.5324 45.3124 41.4695 45.3125 41.4062V18.75H46.875V25.7812H48.4375V17.9688C48.4375 17.7615 48.3552 17.5628 48.2087 17.4163C48.0622 17.2698 47.8635 17.1875 47.6562 17.1875ZM42.9688 44.4375L42.4062 42.1875H43.5313L42.9688 44.4375ZM43.75 40.625H42.1875V18.75H43.75V40.625ZM43.75 17.1875H42.1875V14.8438C42.1875 14.6365 42.2698 14.4378 42.4163 14.2913C42.5628 14.1448 42.7615 14.0625 42.9688 14.0625C43.176 14.0625 43.3747 14.1448 43.5212 14.2913C43.6677 14.4378 43.75 14.6365 43.75 14.8438V17.1875Z"/>
</mask>
<path d="M45.3125 17.1875H37.3125V25.1875H45.3125V17.1875ZM42.9688 12.5V4.5V12.5ZM40.625 41.4062H32.625L32.625 41.4174L40.625 41.4062ZM40.6484 41.5938L48.4096 39.6535L48.4073 39.6444L48.405 39.6353L40.6484 41.5938ZM42.2109 47.8438L34.4498 49.784L34.4509 49.7886L42.2109 47.8438ZM43.7266 47.8438L51.4866 49.7886L51.4877 49.784L43.7266 47.8438ZM45.2891 41.5938L37.5325 39.6353L37.5302 39.6444L37.5279 39.6535L45.2891 41.5938ZM45.3125 41.4062L53.3125 41.4174V41.4062H45.3125ZM45.3125 18.75V10.75H37.3125V18.75H45.3125ZM46.875 18.75H54.875V10.75H46.875V18.75ZM46.875 25.7812H38.875V33.7812H46.875V25.7812ZM48.4375 25.7812V33.7812H56.4375V25.7812H48.4375ZM42.9688 44.4375L35.2076 46.3778H50.7299L42.9688 44.4375ZM42.4062 42.1875V34.1875H32.16L34.6451 44.1278L42.4062 42.1875ZM43.5313 42.1875L51.2924 44.1278L53.7775 34.1875H43.5313V42.1875ZM43.75 40.625V48.625H51.75V40.625H43.75ZM42.1875 40.625H34.1875V48.625H42.1875V40.625ZM42.1875 18.75V10.75H34.1875V18.75H42.1875ZM43.75 18.75H51.75V10.75H43.75V18.75ZM43.75 17.1875V25.1875H51.75V17.1875H43.75ZM42.1875 17.1875H34.1875V25.1875H42.1875V17.1875ZM47.6562 9.1875H45.3125V25.1875H47.6562V9.1875ZM53.3125 17.1875V14.8438H37.3125V17.1875H53.3125ZM53.3125 14.8438C53.3125 12.1004 52.2227 9.46944 50.2829 7.52961L38.9692 18.8433C37.9084 17.7826 37.3125 16.3439 37.3125 14.8438H53.3125ZM50.2829 7.52961C48.3431 5.58979 45.7121 4.5 42.9688 4.5V20.5C41.4686 20.5 40.0299 19.9041 38.9692 18.8433L50.2829 7.52961ZM42.9688 4.5C40.2254 4.5 37.5944 5.58979 35.6546 7.52961L46.9683 18.8433C45.9076 19.9041 44.4689 20.5 42.9688 20.5V4.5ZM35.6546 7.52961C33.7148 9.46944 32.625 12.1004 32.625 14.8438H48.625C48.625 16.3439 48.0291 17.7826 46.9683 18.8433L35.6546 7.52961ZM32.625 14.8438V41.4062H48.625V14.8438H32.625ZM32.625 41.4174C32.626 42.1372 32.7156 42.8541 32.8919 43.5522L48.405 39.6353C48.5503 40.2108 48.6242 40.8018 48.625 41.3951L32.625 41.4174ZM32.8873 43.534L34.4498 49.784L49.9721 45.9035L48.4096 39.6535L32.8873 43.534ZM34.4509 49.7886C34.9268 51.6874 36.0235 53.3727 37.5667 54.5768L47.4096 41.9627C48.6782 42.9526 49.5797 44.338 49.9709 45.8989L34.4509 49.7886ZM37.5667 54.5768C39.11 55.7811 41.0113 56.4351 42.9688 56.4351V40.4351C44.5779 40.4351 46.1409 40.9727 47.4096 41.9627L37.5667 54.5768ZM42.9688 56.4351C44.9262 56.4351 46.8275 55.7811 48.3708 54.5768L38.5279 41.9627C39.7966 40.9727 41.3596 40.4351 42.9688 40.4351V56.4351ZM48.3708 54.5768C49.914 53.3727 51.0107 51.6874 51.4866 49.7886L35.9666 45.8989C36.3578 44.338 37.2593 42.9526 38.5279 41.9627L48.3708 54.5768ZM51.4877 49.784L53.0502 43.534L37.5279 39.6535L35.9654 45.9035L51.4877 49.784ZM53.0456 43.5522C53.2219 42.8541 53.3115 42.1372 53.3125 41.4174L37.3125 41.3951C37.3133 40.8018 37.3872 40.2108 37.5325 39.6353L53.0456 43.5522ZM53.3125 41.4062V18.75H37.3125V41.4062H53.3125ZM45.3125 26.75H46.875V10.75H45.3125V26.75ZM38.875 18.75V25.7812H54.875V18.75H38.875ZM46.875 33.7812H48.4375V17.7812H46.875V33.7812ZM56.4375 25.7812V17.9688H40.4375V25.7812H56.4375ZM56.4375 17.9688C56.4375 15.6398 55.5124 13.4063 53.8655 11.7595L42.5518 23.0732C41.198 21.7194 40.4375 19.8833 40.4375 17.9688H56.4375ZM53.8655 11.7595C52.2187 10.1126 49.9852 9.1875 47.6562 9.1875V25.1875C45.7417 25.1875 43.9056 24.427 42.5518 23.0732L53.8655 11.7595ZM50.7299 42.4972L50.1674 40.2472L34.6451 44.1278L35.2076 46.3778L50.7299 42.4972ZM42.4062 50.1875H43.5313V34.1875H42.4062V50.1875ZM35.7701 40.2472L35.2076 42.4972L50.7299 46.3778L51.2924 44.1278L35.7701 40.2472ZM43.75 32.625H42.1875V48.625H43.75V32.625ZM50.1875 40.625V18.75H34.1875V40.625H50.1875ZM42.1875 26.75H43.75V10.75H42.1875V26.75ZM35.75 18.75V40.625H51.75V18.75H35.75ZM43.75 9.1875H42.1875V25.1875H43.75V9.1875ZM50.1875 17.1875V14.8438H34.1875V17.1875H50.1875ZM50.1875 14.8438C50.1875 16.7583 49.427 18.5944 48.0732 19.9482L36.7595 8.63447C35.1126 10.2813 34.1875 12.5148 34.1875 14.8438H50.1875ZM48.0732 19.9482C46.7194 21.302 44.8833 22.0625 42.9688 22.0625V6.0625C40.6398 6.0625 38.4063 6.98765 36.7595 8.63447L48.0732 19.9482ZM42.9688 22.0625C41.0542 22.0625 39.2181 21.302 37.8643 19.9482L49.178 8.63447C47.5312 6.98765 45.2977 6.0625 42.9688 6.0625V22.0625ZM37.8643 19.9482C36.5105 18.5944 35.75 16.7583 35.75 14.8438H51.75C51.75 12.5148 50.8249 10.2813 49.178 8.63447L37.8643 19.9482ZM35.75 14.8438V17.1875H51.75V14.8438H35.75Z" fill="#2C2149" mask="url(#path-6-inside-3_63_583)"/>
<mask id="path-8-inside-4_63_583" fill="white">
<path d="M14.0625 29.6875H17.1875V31.25H14.0625V29.6875Z"/>
</mask>
<path d="M14.0625 29.6875V21.6875H6.0625V29.6875H14.0625ZM17.1875 29.6875H25.1875V21.6875H17.1875V29.6875ZM17.1875 31.25V39.25H25.1875V31.25H17.1875ZM14.0625 31.25H6.0625V39.25H14.0625V31.25ZM14.0625 37.6875H17.1875V21.6875H14.0625V37.6875ZM9.1875 29.6875V31.25H25.1875V29.6875H9.1875ZM17.1875 23.25H14.0625V39.25H17.1875V23.25ZM22.0625 31.25V29.6875H6.0625V31.25H22.0625Z" fill="#2C2149" mask="url(#path-8-inside-4_63_583)"/>
<mask id="path-10-inside-5_63_583" fill="white">
<path d="M18.75 29.6875H34.375V31.25H18.75V29.6875Z"/>
</mask>
<path d="M18.75 29.6875V21.6875H10.75V29.6875H18.75ZM34.375 29.6875H42.375V21.6875H34.375V29.6875ZM34.375 31.25V39.25H42.375V31.25H34.375ZM18.75 31.25H10.75V39.25H18.75V31.25ZM18.75 37.6875H34.375V21.6875H18.75V37.6875ZM26.375 29.6875V31.25H42.375V29.6875H26.375ZM34.375 23.25H18.75V39.25H34.375V23.25ZM26.75 31.25V29.6875H10.75V31.25H26.75Z" fill="#2C2149" mask="url(#path-10-inside-5_63_583)"/>
<mask id="path-12-inside-6_63_583" fill="white">
<path d="M14.0625 34.375H17.1875V35.9375H14.0625V34.375Z"/>
</mask>
<path d="M14.0625 34.375V26.375H6.0625V34.375H14.0625ZM17.1875 34.375H25.1875V26.375H17.1875V34.375ZM17.1875 35.9375V43.9375H25.1875V35.9375H17.1875ZM14.0625 35.9375H6.0625V43.9375H14.0625V35.9375ZM14.0625 42.375H17.1875V26.375H14.0625V42.375ZM9.1875 34.375V35.9375H25.1875V34.375H9.1875ZM17.1875 27.9375H14.0625V43.9375H17.1875V27.9375ZM22.0625 35.9375V34.375H6.0625V35.9375H22.0625Z" fill="#2C2149" mask="url(#path-12-inside-6_63_583)"/>
<mask id="path-14-inside-7_63_583" fill="white">
<path d="M18.75 34.375H34.375V35.9375H18.75V34.375Z"/>
</mask>
<path d="M18.75 34.375V26.375H10.75V34.375H18.75ZM34.375 34.375H42.375V26.375H34.375V34.375ZM34.375 35.9375V43.9375H42.375V35.9375H34.375ZM18.75 35.9375H10.75V43.9375H18.75V35.9375ZM18.75 42.375H34.375V26.375H18.75V42.375ZM26.375 34.375V35.9375H42.375V34.375H26.375ZM34.375 27.9375H18.75V43.9375H34.375V27.9375ZM26.75 35.9375V34.375H10.75V35.9375H26.75Z" fill="#2C2149" mask="url(#path-14-inside-7_63_583)"/>
<mask id="path-16-inside-8_63_583" fill="white">
<path d="M14.0625 39.0625H17.1875V40.625H14.0625V39.0625Z"/>
</mask>
<path d="M14.0625 39.0625V31.0625H6.0625V39.0625H14.0625ZM17.1875 39.0625H25.1875V31.0625H17.1875V39.0625ZM17.1875 40.625V48.625H25.1875V40.625H17.1875ZM14.0625 40.625H6.0625V48.625H14.0625V40.625ZM14.0625 47.0625H17.1875V31.0625H14.0625V47.0625ZM9.1875 39.0625V40.625H25.1875V39.0625H9.1875ZM17.1875 32.625H14.0625V48.625H17.1875V32.625ZM22.0625 40.625V39.0625H6.0625V40.625H22.0625Z" fill="#2C2149" mask="url(#path-16-inside-8_63_583)"/>
<mask id="path-18-inside-9_63_583" fill="white">
<path d="M18.75 39.0625H34.375V40.625H18.75V39.0625Z"/>
</mask>
<path d="M18.75 39.0625V31.0625H10.75V39.0625H18.75ZM34.375 39.0625H42.375V31.0625H34.375V39.0625ZM34.375 40.625V48.625H42.375V40.625H34.375ZM18.75 40.625H10.75V48.625H18.75V40.625ZM18.75 47.0625H34.375V31.0625H18.75V47.0625ZM26.375 39.0625V40.625H42.375V39.0625H26.375ZM34.375 32.625H18.75V48.625H34.375V32.625ZM26.75 40.625V39.0625H10.75V40.625H26.75Z" fill="#2C2149" mask="url(#path-18-inside-9_63_583)"/>
<mask id="path-20-inside-10_63_583" fill="white">
<path d="M14.0625 43.75H17.1875V45.3125H14.0625V43.75Z"/>
</mask>
<path d="M14.0625 43.75V35.75H6.0625V43.75H14.0625ZM17.1875 43.75H25.1875V35.75H17.1875V43.75ZM17.1875 45.3125V53.3125H25.1875V45.3125H17.1875ZM14.0625 45.3125H6.0625V53.3125H14.0625V45.3125ZM14.0625 51.75H17.1875V35.75H14.0625V51.75ZM9.1875 43.75V45.3125H25.1875V43.75H9.1875ZM17.1875 37.3125H14.0625V53.3125H17.1875V37.3125ZM22.0625 45.3125V43.75H6.0625V45.3125H22.0625Z" fill="#2C2149" mask="url(#path-20-inside-10_63_583)"/>
<mask id="path-22-inside-11_63_583" fill="white">
<path d="M18.75 43.75H34.375V45.3125H18.75V43.75Z"/>
</mask>
<path d="M18.75 43.75V35.75H10.75V43.75H18.75ZM34.375 43.75H42.375V35.75H34.375V43.75ZM34.375 45.3125V53.3125H42.375V45.3125H34.375ZM18.75 45.3125H10.75V53.3125H18.75V45.3125ZM18.75 51.75H34.375V35.75H18.75V51.75ZM26.375 43.75V45.3125H42.375V43.75H26.375ZM34.375 37.3125H18.75V53.3125H34.375V37.3125ZM26.75 45.3125V43.75H10.75V45.3125H26.75Z" fill="#2C2149" mask="url(#path-22-inside-11_63_583)"/>
</svg>
