<svg width="56" height="50" viewBox="0 0 56 50" fill="none" xmlns="http://www.w3.org/2000/svg">
<path d="M13.0396 38.6732L12.9547 38.2783H12.5508H1.89493C1.12621 38.2783 0.5 37.6521 0.5 36.8834V1.89493C0.5 1.12621 1.12621 0.5 1.89493 0.5H53.4504C54.2192 0.5 54.8453 1.12621 54.8453 1.89488V36.8834C54.8453 37.6521 54.2191 38.2783 53.4503 38.2783H44.6017C44.4292 38.2783 44.2895 38.1386 44.2895 37.9662C44.2895 37.7937 44.4292 37.654 44.6017 37.654H53.4503C53.8758 37.654 54.221 37.3088 54.221 36.8834V12.3441V11.8441H53.721H46.8967H46.4927L46.4078 12.239L40.5096 39.6908C40.3089 40.6249 39.5127 41.3249 38.5738 41.4216L37.8232 41.4988L38.1869 42.16C38.576 42.8672 38.7979 43.6783 38.7979 44.5415C38.7979 47.2752 36.5731 49.5 33.8394 49.5C31.1057 49.5 28.8808 47.2752 28.8808 44.5415C28.8808 43.684 29.0995 42.8778 29.4837 42.174L29.8875 41.4344H29.0449H24.5115H23.6689L24.0727 42.174C24.4569 42.8778 24.6756 43.684 24.6756 44.5415C24.6756 47.2752 22.4507 49.5 19.717 49.5C16.9833 49.5 14.7585 47.2752 14.7585 44.5415C14.7585 43.6687 14.9858 42.8491 15.3832 42.1361L15.7246 41.5237L15.0344 41.4004C14.1655 41.2453 13.4474 40.5714 13.2583 39.6909L13.2583 39.6909L13.0396 38.6732ZM51.075 10.35L50.1191 11.2198H51.4115H53.7211H54.2211V10.7198V1.89482C54.2211 1.4694 53.8759 1.12415 53.4504 1.12415H1.89493C1.46974 1.12415 1.12426 1.46927 1.12426 1.89482V10.7198V11.2198H1.62426H30.2829C30.4553 11.2198 30.595 11.3595 30.595 11.5319C30.595 11.7044 30.4553 11.8441 30.2829 11.8441H1.62426H1.12426V12.3441V36.8835C1.12426 37.3089 1.46951 37.6541 1.89493 37.6541H12.202H12.8209L12.6909 37.0491L11.5918 31.9338C11.5918 31.9338 11.5918 31.9338 11.5918 31.9338C11.5556 31.7655 11.6626 31.5997 11.8307 31.5632C12.0013 31.5274 12.1661 31.6353 12.202 31.8027L12.202 31.8028L13.8687 39.5599C14.0247 40.2859 14.6737 40.8102 15.4163 40.8102H16.2735H16.4515L16.5894 40.6978C17.444 40.001 18.5323 39.583 19.7172 39.583C20.9021 39.583 21.9904 40.001 22.845 40.6978L22.983 40.8102H23.161H30.3958H30.5739L30.7118 40.6978C31.5664 40.001 32.6547 39.583 33.8396 39.583C35.0245 39.583 36.1128 40.001 36.9674 40.6978L37.1053 40.8102H37.2833H38.3521C39.0948 40.8102 39.7435 40.2859 39.8995 39.5599L46.0074 11.1325C46.1107 10.6519 46.5456 10.3007 47.0368 10.3007H49.5915C50.4647 10.3007 51.1743 9.59103 51.1743 8.71787C51.1743 7.84471 50.4647 7.13507 49.5915 7.13507H47.0368C45.0603 7.13507 43.3277 8.53483 42.9125 10.4672L43.4014 10.5723L42.9125 10.4672L41.4965 17.058C41.4655 17.2021 41.3382 17.3048 41.1912 17.3048H11.0458C10.566 17.3048 10.1162 17.5198 9.8147 17.8927L9.81464 17.8928C9.51305 18.266 9.39766 18.7511 9.49826 19.22L9.49829 19.2202L11.5007 28.5399C11.5368 28.7082 11.4298 28.874 11.2615 28.9105C11.0918 28.9464 10.9265 28.8388 10.8904 28.6709L8.88804 19.3511C8.74714 18.6953 8.9076 18.022 9.32902 17.5005C9.7506 16.9788 10.3752 16.6804 11.0458 16.6804H40.5351H40.9391L41.0239 16.2854L41.8482 12.449L41.9781 11.844H41.3593H34.0392C33.8668 11.844 33.7271 11.7043 33.7271 11.5318C33.7271 11.3594 33.8668 11.2197 34.0392 11.2197H41.7081H42.1122L42.197 10.8247L42.3019 10.3361C42.3019 10.336 42.302 10.336 42.302 10.336C42.778 8.12104 44.7711 6.5107 47.0365 6.5107H49.5913C50.8079 6.5107 51.7984 7.5012 51.7984 8.71776C51.7984 9.36317 51.5202 9.94494 51.075 10.35ZM15.3826 44.5414C15.3826 46.9318 17.3266 48.8757 19.717 48.8757C22.1074 48.8757 24.0514 46.9319 24.0514 44.5414C24.0514 42.151 22.1075 40.207 19.717 40.207C17.3265 40.207 15.3826 42.151 15.3826 44.5414ZM29.5051 44.5414C29.5051 46.9318 31.4491 48.8757 33.8395 48.8757C36.2298 48.8757 38.1738 46.9319 38.1739 44.5414C38.1739 42.151 36.2299 40.207 33.8395 40.207C31.4491 40.207 29.5051 42.151 29.5051 44.5414Z" stroke="#2C2149"/>
<path d="M7.08635 6.14172C7.08635 6.74018 6.6012 7.22533 6.00274 7.22533C5.40428 7.22533 4.91913 6.74018 4.91913 6.14172C4.91913 5.54325 5.40428 5.05811 6.00274 5.05811C6.6012 5.05811 7.08635 5.54325 7.08635 6.14172Z" stroke="#2C2149"/>
<path d="M11.9023 6.14172C11.9023 6.74018 11.4171 7.22533 10.8187 7.22533C10.2202 7.22533 9.73505 6.74018 9.73505 6.14172C9.73505 5.54326 10.2202 5.05811 10.8187 5.05811C11.4171 5.05811 11.9023 5.54326 11.9023 6.14172Z" stroke="#2C2149"/>
<path d="M16.7182 6.14172C16.7182 6.74018 16.233 7.22533 15.6346 7.22533C15.0361 7.22533 14.551 6.74018 14.551 6.14172C14.551 5.54326 15.0361 5.05811 15.6346 5.05811C16.233 5.05811 16.7182 5.54326 16.7182 6.14172Z" stroke="#2C2149"/>
<path d="M24.0792 34.368L24.0792 34.3678C24.072 34.2812 24.1015 34.1952 24.1608 34.1308C24.2197 34.0668 24.3028 34.0303 24.3902 34.0303H29.1666C29.2536 34.0303 29.337 34.0668 29.3962 34.131L29.7639 33.7922L29.396 34.1308C29.4552 34.1951 29.4847 34.2811 29.4776 34.368L29.2314 37.358L29.2314 37.3581C29.2181 37.52 29.0829 37.6446 28.9204 37.6446H24.6364C24.4741 37.6446 24.3388 37.52 24.3254 37.358C24.3254 37.358 24.3254 37.358 24.3254 37.358L24.0792 34.368ZM28.1723 37.0203H28.6327L28.6706 36.5614L28.7832 35.1956L28.8278 34.6545H28.2849H25.2719H24.7291L24.7736 35.1955L24.8861 36.5613L24.9238 37.0203H25.3844H28.1723Z" stroke="#2C2149"/>
<path d="M19.7278 24.0849L19.7278 24.0848H19.7169H14.0336C13.8865 24.0848 13.7594 23.9821 13.7284 23.8382C13.7284 23.8382 13.7284 23.8382 13.7284 23.8381L13.086 20.8481L13.0862 20.8481L13.0832 20.8359C13.0426 20.6675 13.2054 20.466 13.3786 20.4703L13.3786 20.4704H13.3911H19.4708C19.6331 20.4704 19.7685 20.595 19.7818 20.757L20.0279 23.7471L20.0278 23.7471L20.029 23.7579C20.0456 23.9174 19.8882 24.0884 19.7278 24.0849ZM19.2212 21.5537L19.1834 21.0947H18.7229H14.3963H13.7775L13.9075 21.6997L14.201 23.0655L14.2858 23.4605H14.6898H18.8353H19.3781L19.3336 22.9195L19.2212 21.5537Z" stroke="#2C2149"/>
<path d="M15.9994 34.4079L15.9994 34.4079L16.6418 37.398C16.6418 37.398 16.6418 37.398 16.6418 37.398L15.9994 34.4079ZM15.9994 34.4079C15.9796 34.3158 16.0025 34.2197 16.0618 34.1462L15.9994 34.4079ZM17.1143 36.6254L17.1991 37.0203H17.6031H19.9516H20.4945L20.4499 36.4793L20.3375 35.1135L20.2997 34.6545H19.8392H17.3096H16.6908L16.8208 35.2596L17.1143 36.6254Z" stroke="#2C2149"/>
<path d="M15.6575 29.8453L15.7423 30.2403H16.1463H19.3933H19.9362L19.8916 29.6993L19.7792 28.3334L19.7414 27.8744H19.2809H15.8528H15.234L15.364 28.4794L15.6575 29.8453Z" stroke="#2C2149"/>
<path d="M23.2087 23.7981L23.2087 23.7981L22.9624 20.808L22.9625 20.808L22.9613 20.797C22.9447 20.638 23.1021 20.4668 23.2625 20.4703L23.2625 20.4704H23.2734H30.2827V20.4705L30.2935 20.4703C30.4538 20.4668 30.6113 20.6375 30.5947 20.7976L30.5946 20.7975L30.5938 20.8081L30.3476 23.7981L30.3476 23.7982C30.3343 23.9601 30.1991 24.0847 30.0366 24.0847H23.5197C23.3574 24.0847 23.2221 23.9601 23.2087 23.7981ZM29.8994 21.6357L29.944 21.0946H29.4011H24.1552H23.6124L23.6569 21.6357L23.7693 23.0015L23.8071 23.4604H24.2676H29.2886H29.7491L29.7869 23.0015L29.8994 21.6357Z" stroke="#2C2149"/>
<path d="M39.163 27.3662L39.163 27.3662C39.2223 27.4395 39.2452 27.5357 39.2254 27.6281L38.5831 30.6179C38.5831 30.618 38.5831 30.618 38.5831 30.618C38.5831 30.618 38.583 30.6181 38.583 30.6181C38.552 30.762 38.4248 30.8647 38.2778 30.8647H33.2813C33.194 30.8647 33.1108 30.8281 33.0519 30.7642L33.0519 30.7641C32.9928 30.6999 32.9632 30.6139 32.9704 30.527C32.9704 30.527 32.9704 30.5269 32.9704 30.5269L33.2165 27.5368L33.2165 27.5367C33.2298 27.3748 33.365 27.2502 33.5275 27.2502H38.9202C39.0146 27.2502 39.1038 27.2929 39.163 27.3662ZM34.2754 27.8745H33.8149L33.7771 28.3334L33.6646 29.6994L33.62 30.2404H34.1629H37.6216H38.0255L38.1104 29.8454L38.4039 28.4795L38.5339 27.8745H37.915H34.2754Z" stroke="#2C2149"/>
<path d="M33.8395 24.0848V24.0846L33.8286 24.0849C33.6681 24.0884 33.5109 23.9173 33.5276 23.7582L33.5277 23.7582L33.5286 23.7471L33.7747 20.757L33.7747 20.7569C33.788 20.595 33.9233 20.4704 34.0857 20.4704H40.3769V20.4706L40.3893 20.4703C40.5628 20.466 40.7255 20.6676 40.6849 20.836L40.6848 20.8359L40.6822 20.8481L40.0398 23.838C40.0088 23.9821 39.8815 24.0848 39.7345 24.0848H33.8395ZM34.8337 21.0947H34.3732L34.3353 21.5536L34.2228 22.9194L34.1782 23.4605H34.7211H39.0783H39.4822L39.5671 23.0655L39.8606 21.6997L39.9906 21.0947H39.3718H34.8337Z" stroke="#2C2149"/>
<path d="M23.5207 27.5879L23.5207 27.5878C23.5136 27.5012 23.543 27.4152 23.6023 27.3508C23.6612 27.2868 23.7443 27.2502 23.8317 27.2502H29.7246C29.8119 27.2502 29.895 27.2867 29.9539 27.3508C30.0131 27.415 30.0426 27.5011 30.0355 27.588L29.7894 30.5781L29.7894 30.5782C29.7761 30.7401 29.6408 30.8647 29.4784 30.8647H24.0779C23.9156 30.8647 23.7802 30.7401 23.7669 30.5781C23.7669 30.5781 23.7669 30.5781 23.7669 30.5781L23.5207 27.5879ZM28.7303 30.2403H29.1908L29.2286 29.7814L29.3412 28.4154L29.3857 27.8744H28.8429H24.7135H24.1706L24.2152 28.4154L24.3276 29.7813L24.3654 30.2403H24.8259H28.7303Z" stroke="#2C2149"/>
<path d="M37.7062 34.1462L37.7062 34.1462C37.647 34.0729 37.5577 34.0303 37.4634 34.0303H32.9692C32.8067 34.0303 32.6715 34.1549 32.6582 34.3167L32.6582 34.3168L32.412 37.3068C32.412 37.3069 32.412 37.3069 32.412 37.3069C32.4049 37.3938 32.4344 37.4798 32.4936 37.5441C32.5525 37.6081 32.6357 37.6446 32.7229 37.6446H36.8209C36.9678 37.6446 37.095 37.542 37.1261 37.398C37.1261 37.3979 37.1261 37.3979 37.1261 37.3978L37.7686 34.4081L37.7062 34.1462ZM37.7062 34.1462C37.7654 34.2195 37.7884 34.3156 37.7686 34.4079L37.7062 34.1462ZM33.7172 34.6546H33.2567L33.2189 35.1136L33.1064 36.4794L33.0618 37.0204H33.6047H36.1647H36.5687L36.6536 36.6255L36.947 35.2597L37.077 34.6546H36.4582H33.7172Z" stroke="#2C2149"/>
<path d="M18.8231 44.5414C18.8231 44.0477 19.2233 43.6475 19.717 43.6475C20.2107 43.6475 20.6109 44.0477 20.6109 44.5414C20.6109 45.0351 20.2106 45.4354 19.717 45.4354C19.2233 45.4354 18.8231 45.0351 18.8231 44.5414Z" stroke="#2C2149"/>
<path d="M32.9455 44.5414C32.9455 44.0477 33.3457 43.6475 33.8394 43.6475C34.3331 43.6475 34.7333 44.0477 34.7333 44.5414C34.7333 45.0351 34.3331 45.4354 33.8394 45.4354C33.3458 45.4354 32.9455 45.0351 32.9455 44.5414Z" stroke="#2C2149"/>
</svg>
