<svg width="50" height="50" viewBox="0 0 50 50" fill="none" xmlns="http://www.w3.org/2000/svg">
<path d="M37.8328 17.1062C37.714 16.823 37.5684 16.5561 37.399 16.3086H39.9413C42.4183 16.3086 44.4335 14.2933 44.4335 11.8164C44.4335 9.33944 42.4183 7.32421 39.9413 7.32421H32.121C32.6182 6.60136 32.9101 5.72685 32.9101 4.78515C32.9101 2.3082 30.8949 0.292969 28.4179 0.292969H4.49218C2.01523 0.292969 0 2.3082 0 4.78515C0 7.2621 2.01523 9.27733 4.49218 9.27733H12.3125C11.8153 10.0002 11.5234 10.8747 11.5234 11.8164C11.5234 12.7581 11.8152 13.6326 12.3125 14.3554H9.76561C7.28866 14.3554 5.27343 16.3707 5.27343 18.8476C5.27343 20.2702 5.93886 21.5396 6.97411 22.3632C5.93886 23.1869 5.27343 24.4563 5.27343 25.8789C5.27343 27.3014 5.93886 28.5709 6.97411 29.3945C5.93886 30.2181 5.27343 31.4875 5.27343 32.9101C5.27343 34.3327 5.93886 35.6021 6.97411 36.4257C5.93886 37.2494 5.27343 38.5188 5.27343 39.9413C5.27343 42.4183 7.28866 44.4335 9.76561 44.4335H21.2744C24.3062 47.6764 28.6193 49.707 33.3985 49.707C42.5526 49.707 50 42.2596 50 33.1055C50 25.4867 44.8408 19.051 37.8328 17.1062ZM39.9413 9.27733C41.3414 9.27733 42.4804 10.4164 42.4804 11.8164C42.4804 13.2164 41.3414 14.3554 39.9413 14.3554H33.6913H16.0156C14.6155 14.3554 13.4765 13.2164 13.4765 11.8164C13.4765 10.4164 14.6155 9.27733 16.0156 9.27733H39.9413ZM4.49218 7.32421C3.09208 7.32421 1.95312 6.18515 1.95312 4.78515C1.95312 3.38515 3.09208 2.24609 4.49218 2.24609H28.4179C29.818 2.24609 30.957 3.38515 30.957 4.78515C30.957 6.18515 29.818 7.32421 28.4179 7.32421H4.49218ZM9.76561 16.3086H33.6913C34.0847 16.3086 34.4614 16.4 34.7993 16.5636C34.3373 16.5249 33.8703 16.504 33.3985 16.504C28.814 16.504 24.6578 18.372 21.6505 21.3867H9.76561C8.36561 21.3867 7.22655 20.2476 7.22655 18.8476C7.22655 17.4476 8.36561 16.3086 9.76561 16.3086ZM9.76561 23.3398H19.9819C18.8733 24.8587 18.0162 26.5717 17.4718 28.4179H9.76561C8.36551 28.4179 7.22655 27.279 7.22655 25.8789C7.22655 24.4789 8.36551 23.3398 9.76561 23.3398ZM9.76561 30.371H17.0234C16.8753 31.261 16.7969 32.1742 16.7969 33.1055C16.7969 33.901 16.8545 34.6832 16.9632 35.4492H9.76561C8.36551 35.4492 7.22655 34.3102 7.22655 32.9101C7.22655 31.51 8.36551 30.371 9.76561 30.371ZM9.76561 42.4804C8.36551 42.4804 7.22655 41.3414 7.22655 39.9413C7.22655 38.5412 8.36551 37.4023 9.76561 37.4023H17.3619C17.8547 39.2395 18.6551 40.9517 19.7049 42.4804H9.76561ZM33.3985 47.7539C25.3213 47.7539 18.7501 41.1826 18.7501 33.1055C18.7501 25.0284 25.3213 18.4571 33.3985 18.4571C41.4756 18.4571 48.0469 25.0284 48.0469 33.1055C48.0469 41.1826 41.4756 47.7539 33.3985 47.7539Z" fill="#2C2149"/>
</svg>
