<svg width="50" height="50" viewBox="0 0 50 50" fill="none" xmlns="http://www.w3.org/2000/svg">
<g clip-path="url(#clip0_63_605)">
<path d="M36.2741 14.2138L36.2743 14.214C36.3623 14.302 36.414 14.4267 36.414 14.5508C36.414 14.6747 36.3623 14.7996 36.2742 14.8877L36.2741 14.8877C36.1863 14.9756 36.0615 15.0273 35.9374 15.0273C35.8135 15.0273 35.6887 14.9757 35.6005 14.8876L35.247 15.2412L35.6005 14.8876C35.5125 14.7997 35.4609 14.6749 35.4609 14.5508C35.4609 14.426 35.5124 14.3021 35.6006 14.2139C35.6886 14.1259 35.8134 14.0742 35.9374 14.0742C36.0615 14.0742 36.1863 14.1259 36.2741 14.2138Z" stroke="#2C2149"/>
<path d="M13.6719 35.8515H14.1719V35.3515V29.4922V28.9922H13.6719H7.8125H7.3125V29.4922V35.3515V35.8515H7.8125H13.6719ZM6.83594 28.0391H14.6484C14.9116 28.0391 15.125 28.2524 15.125 28.5156V36.3281C15.125 36.5913 14.9116 36.8047 14.6484 36.8047H6.83594C6.57279 36.8047 6.35938 36.5913 6.35938 36.3281V28.5156C6.35938 28.2524 6.57279 28.0391 6.83594 28.0391Z" stroke="#2C2149"/>
<path d="M49.2057 20.9465L49.2056 20.9464C49.0278 20.8727 48.8227 20.9135 48.6864 21.0497L49.2057 20.9465ZM49.2057 20.9465C49.3838 21.0202 49.4999 21.1941 49.4999 21.3868V49.0235C49.4999 49.2867 49.2865 49.5 49.0234 49.5H21.3867C21.1939 49.5 21.0202 49.384 20.9464 49.2059L49.2057 20.9465ZM48.5468 48.5469H48.0468H23.7444H22.5373L23.3909 47.6934L27.1175 43.9667L27.4711 43.6132L27.8246 43.9667L28.7568 44.8989C28.85 44.9921 28.9711 45.0385 29.0938 45.0385C29.2165 45.0385 29.3376 44.9921 29.4308 44.8989C29.6168 44.7129 29.6169 44.4111 29.4308 44.2249C29.4308 44.2249 29.4308 44.2249 29.4307 44.2248L28.4986 43.2927L28.145 42.9391L28.4986 42.5856L30.9845 40.0996L31.3381 39.7461L31.6916 40.0996L32.6237 41.0318C32.7169 41.1249 32.838 41.1713 32.9607 41.1713C33.0833 41.1713 33.2044 41.1249 33.2977 41.0318L48.5468 48.5469ZM48.5468 48.5469V48.0469M48.5468 48.5469V48.0469M48.5468 48.0469V23.7444V22.5374L47.6933 23.3908L43.9662 27.1173L43.6126 27.4708M48.5468 48.0469L43.6126 27.4708M32.0119 39.072L32.3654 38.7185L34.8514 36.2325L35.2049 35.879L35.5585 36.2325L36.4907 37.1648C36.5839 37.2579 36.705 37.3044 36.8277 37.3044C36.9504 37.3044 37.0715 37.2579 37.1647 37.1648C37.3507 36.9787 37.3508 36.6769 37.1647 36.4907C37.1646 36.4907 37.1646 36.4907 37.1646 36.4907L36.2324 35.5585L35.8789 35.2049L36.2324 34.8514L38.7183 32.3656L39.0718 32.012L39.4254 32.3656L40.3576 33.2978C40.4508 33.391 40.5719 33.4374 40.6946 33.4374C40.8173 33.4374 40.9384 33.391 41.0315 33.2978C41.2176 33.1117 41.2177 32.81 41.0315 32.6237C41.0315 32.6237 41.0315 32.6237 41.0315 32.6237L40.0993 31.6915L39.7458 31.338L40.0993 30.9844L42.5853 28.4985L42.9388 28.1449L43.2924 28.4985L44.2245 29.4306C44.3177 29.5238 44.4387 29.5702 44.5615 29.5702C44.684 29.5702 44.8051 29.5238 44.8984 29.4306L32.0119 39.072ZM32.0119 39.072L32.3654 39.4256M32.0119 39.072L32.3654 39.4256M32.3654 39.4256L33.2977 40.3578C33.4837 40.5439 33.4838 40.8456 33.2978 41.0317L32.3654 39.4256ZM43.6126 27.4708L43.9662 27.8244M43.6126 27.4708L43.9662 27.8244M43.9662 27.8244L44.8984 28.7566C45.0845 28.9427 45.0845 29.2444 44.8985 29.4305L43.9662 27.8244ZM38.7924 30.9437L48.6863 21.0498L20.9464 49.2059C20.8727 49.0279 20.9135 48.8228 21.0497 48.6865C21.0498 48.6865 21.0498 48.6865 21.0498 48.6864L27.1327 42.6035L27.1332 42.603L27.1336 42.6026L27.1337 42.6025L27.1346 42.6017L27.135 42.6013L38.7316 31.0047C38.7337 31.0026 38.7359 31.0004 38.7381 30.9981L38.7923 30.9439L38.7924 30.9437Z" stroke="#2C2149"/>
<path d="M44.3228 32.7345L44.3229 32.7346C44.501 32.8084 44.6171 32.9822 44.6171 33.1749V44.1406C44.6171 44.4038 44.4037 44.6172 44.1405 44.6172H33.1748C32.982 44.6172 32.8083 44.5011 32.7345 44.323C32.6608 44.145 32.7015 43.94 32.8379 43.8036C32.8379 43.8036 32.8379 43.8036 32.8379 43.8036L43.8036 32.8378C43.9398 32.7016 44.1448 32.6608 44.3228 32.7345ZM43.164 43.664H43.664V43.164V35.5325V34.3254L42.8104 35.179L35.179 42.8105L34.3254 43.664H35.5325H43.164Z" stroke="#2C2149"/>
<path d="M35.2966 19.6004L34.9431 19.2468L22.7004 7.00405C22.7004 7.00402 22.7003 7.00399 22.7003 7.00395C22.6108 6.91452 22.4896 6.86437 22.3633 6.86437C22.237 6.86437 22.1157 6.9146 22.0264 7.00396L7.28978 21.7406L7.14333 21.887H6.93623H3.33438H2.12728L2.98082 21.0334L22.0098 2.00438L22.3633 1.65082L22.7169 2.00438L33.1591 12.4466C33.1591 12.4466 33.1591 12.4466 33.1592 12.4466C33.3453 12.6327 33.647 12.6328 33.8333 12.4466C34.0193 12.2605 34.0193 11.9588 33.8332 11.7726L35.2966 19.6004ZM35.2966 19.6004L35.6502 19.2468L37.5249 17.3721C37.5741 17.3229 37.6332 17.2852 37.6983 17.2614L44.3662 14.8195C44.3662 14.8195 44.3662 14.8195 44.3662 14.8195C44.3663 14.8195 44.3663 14.8195 44.3663 14.8195C44.5408 14.7557 44.7359 14.7989 44.8672 14.93L35.2966 19.6004ZM22.2103 41.1388L21.8567 41.4924L21.2417 42.1074C20.768 42.5811 20.1357 42.8431 19.4657 42.8431C18.7957 42.8431 18.1634 42.5812 17.6897 42.1075C17.6897 42.1074 17.6897 42.1074 17.6896 42.1074L18.0432 41.7539L22.2103 41.1388ZM22.2103 41.1388L21.8567 40.7853M22.2103 41.1388L21.8567 40.7853M21.8567 40.7853L19.0117 37.9403L18.6582 37.5867M21.8567 40.7853L18.6582 37.5867M18.6582 37.5867L18.3046 37.9403M18.6582 37.5867L18.3046 37.9403M18.3046 37.9403L17.6896 38.5552C17.6896 38.5553 17.6896 38.5553 17.6896 38.5553L18.3046 37.9403ZM22.7005 0.639853L33.8332 11.7726L22.0264 0.639808C22.2127 0.453684 22.5143 0.453763 22.7004 0.639808C22.7004 0.639823 22.7004 0.639838 22.7005 0.639853ZM0.639758 22.0264L22.0263 0.639898L44.8672 14.9301C44.9983 15.0612 45.0414 15.2566 44.9776 15.4309L45.4471 15.6028L44.9776 15.4309L42.5356 22.0989L42.5355 22.0991C42.5119 22.1639 42.4741 22.223 42.425 22.2722L34.9364 29.7608C34.9364 29.7608 34.9364 29.7608 34.9363 29.7609C34.75 29.947 34.4484 29.9469 34.2623 29.7609C34.0762 29.5748 34.0762 29.273 34.2623 29.0869L41.0802 22.269L41.4337 21.9154L41.0802 21.5619L38.2351 18.7168L37.8816 18.3633L37.528 18.7168L19.6856 36.5593L19.332 36.9128L19.6856 37.2664L22.5306 40.1114L22.8841 40.465L23.2377 40.1114L29.477 33.8721C29.4771 33.8721 29.4771 33.872 29.4771 33.872C29.6636 33.6858 29.9652 33.686 30.1512 33.872C30.3373 34.0581 30.3373 34.3598 30.1512 34.5459L21.9157 42.7815C21.2407 43.4565 20.3541 43.7944 19.4656 43.7944C18.5769 43.7945 17.6908 43.4566 17.0155 42.7814C15.6649 41.4307 15.6649 39.2319 17.0155 37.8812L17.8904 37.0063L18.1132 36.7836L18.0084 36.4865C17.99 36.4343 17.9805 36.3817 17.9805 36.3284V25.0003C17.9805 24.7371 18.194 24.5237 18.4571 24.5237H26.2696C26.5327 24.5237 26.7462 24.7371 26.7462 25.0003C26.7462 25.2635 26.5327 25.4768 26.2696 25.4768H19.4337H18.9337V25.9768V34.7561V35.9632L19.7872 35.1097L34.269 20.6278L34.6226 20.2742L34.269 19.9207L22.7169 8.36843L22.3633 8.01487L22.0098 8.36843L7.67779 22.7004C7.67775 22.7005 7.67772 22.7005 7.67769 22.7005C7.58816 22.79 7.46695 22.8401 7.34072 22.8401H3.90635H3.40635V23.3401V48.0471V48.5471H3.90635H18.4557C18.7189 48.5471 18.9323 48.7605 18.9323 49.0237C18.9323 49.2868 18.7189 49.5002 18.4557 49.5002H2.92979C2.66664 49.5002 2.45323 49.2868 2.45323 49.0237V23.3401V22.8401H1.95323H0.976668C0.78391 22.8401 0.610206 22.7241 0.536404 22.5459C0.462675 22.3678 0.503455 22.1628 0.639696 22.0265C0.639716 22.0265 0.639737 22.0264 0.639758 22.0264ZM41.3541 20.4876L41.9078 21.0414L42.1772 20.306L43.3588 17.0798L43.7295 16.0676L42.7173 16.4383L39.491 17.6198L38.7556 17.8891L39.3094 18.4429L41.3541 20.4876Z" stroke="#2C2149"/>
<path d="M32.1894 31.3564C32.3133 31.3564 32.4379 31.408 32.5257 31.4957C32.6149 31.5855 32.666 31.7099 32.666 31.833C32.666 31.9565 32.6146 32.0818 32.5256 32.1714C32.4387 32.2581 32.3145 32.3096 32.1894 32.3096C32.0636 32.3096 31.9402 32.2583 31.8529 32.1713C31.764 32.0817 31.7128 31.9574 31.7128 31.833C31.7128 31.7099 31.7638 31.5856 31.853 31.4957C31.941 31.4079 32.0656 31.3564 32.1894 31.3564Z" stroke="#2C2149"/>
<path d="M19.1523 18.457C19.1523 16.687 20.5932 15.2461 22.3632 15.2461C24.1333 15.2461 25.5741 16.687 25.5741 18.457C25.5741 20.2271 24.1333 21.668 22.3632 21.668C20.5932 21.668 19.1523 20.2271 19.1523 18.457ZM20.1054 18.457C20.1054 19.7025 21.1179 20.7148 22.3632 20.7148C23.6086 20.7148 24.621 19.7024 24.621 18.457C24.621 17.2116 23.6086 16.1992 22.3632 16.1992C21.1178 16.1992 20.1054 17.2116 20.1054 18.457Z" stroke="#2C2149"/>
</g>
<defs>
<clipPath id="clip0_63_605">
<rect width="50" height="50" fill="white"/>
</clipPath>
</defs>
</svg>
