<svg width="50" height="50" viewBox="0 0 50 50" fill="none" xmlns="http://www.w3.org/2000/svg">
<path d="M18.75 3.90625C18.2865 3.90625 17.8333 4.04371 17.4479 4.30124C17.0625 4.55878 16.7621 4.92482 16.5847 5.35308C16.4073 5.78135 16.3609 6.2526 16.4513 6.70724C16.5417 7.16188 16.7649 7.5795 17.0927 7.90728C17.4205 8.23506 17.8381 8.45828 18.2928 8.54871C18.7474 8.63915 19.2186 8.59273 19.6469 8.41534C20.0752 8.23795 20.4412 7.93754 20.6988 7.55212C20.9563 7.16669 21.0937 6.71355 21.0937 6.25C21.0937 5.6284 20.8468 5.03226 20.4073 4.59272C19.9677 4.15318 19.3716 3.90625 18.75 3.90625ZM18.75 7.03125C18.5955 7.03125 18.4444 6.98543 18.316 6.89958C18.1875 6.81374 18.0874 6.69172 18.0282 6.54897C17.9691 6.40622 17.9536 6.24913 17.9838 6.09758C18.0139 5.94604 18.0883 5.80683 18.1976 5.69757C18.3068 5.58831 18.446 5.51391 18.5976 5.48376C18.7491 5.45362 18.9062 5.46909 19.049 5.52822C19.1917 5.58735 19.3137 5.68748 19.3996 5.81596C19.4854 5.94444 19.5312 6.09548 19.5312 6.25C19.5312 6.4572 19.4489 6.65591 19.3024 6.80243C19.1559 6.94894 18.9572 7.03125 18.75 7.03125Z" fill="#2C2149"/>
<path d="M8.59375 25.7812H11.7188V27.3438H8.59375V25.7812Z" fill="#2C2149"/>
<path d="M13.2812 25.7812H25V27.3438H13.2812V25.7812Z" fill="#2C2149"/>
<path d="M8.59375 30.4688H11.7188V32.0312H8.59375V30.4688Z" fill="#2C2149"/>
<path d="M8.59375 35.1562H11.7188V36.7188H8.59375V35.1562Z" fill="#2C2149"/>
<path d="M8.59375 39.8438H11.7188V41.4062H8.59375V39.8438Z" fill="#2C2149"/>
<path d="M47.6562 27.3436H46.875C44.3404 27.3373 41.8752 26.5156 39.8438 24.9999L37.9688 23.5936C37.834 23.491 37.6694 23.4354 37.5 23.4354C37.3306 23.4354 37.166 23.491 37.0312 23.5936L35.9375 24.414V8.59364C35.9356 7.97261 35.6881 7.37754 35.249 6.93841C34.8098 6.49927 34.2148 6.25174 33.5938 6.24989H27.2031C27.041 5.79462 26.7425 5.40037 26.3483 5.12079C25.9541 4.84121 25.4833 4.68988 25 4.68739H23.1719C22.8498 3.77178 22.2514 2.97873 21.4593 2.41773C20.6673 1.85672 19.7206 1.55542 18.75 1.55542C17.7794 1.55542 16.8327 1.85672 16.0407 2.41773C15.2486 2.97873 14.6502 3.77178 14.3281 4.68739H12.5C12.0167 4.68988 11.5459 4.84121 11.1517 5.12079C10.7575 5.40037 10.459 5.79462 10.2969 6.24989H3.90625C3.28522 6.25174 2.69015 6.49927 2.25102 6.93841C1.81188 7.37754 1.56435 7.97261 1.5625 8.59364V46.0936C1.56435 46.7147 1.81188 47.3097 2.25102 47.7489C2.69015 48.188 3.28522 48.4355 3.90625 48.4374H33.5938C33.9476 48.4351 34.2964 48.3531 34.6142 48.1976C34.932 48.0421 35.2108 47.8169 35.4297 47.5389L37.1641 48.3593C37.2686 48.4106 37.3835 48.4373 37.5 48.4373C37.6165 48.4373 37.7314 48.4106 37.8359 48.3593L44.6953 45.1014C45.8267 44.5065 46.7735 43.6131 47.4332 42.5182C48.0929 41.4234 48.4402 40.1688 48.4375 38.8905V28.1249C48.4375 27.9177 48.3552 27.719 48.2087 27.5725C48.0622 27.4259 47.8634 27.3436 47.6562 27.3436ZM27.3438 7.81239H33.5938C33.8009 7.81239 33.9997 7.8947 34.1462 8.04121C34.2927 8.18772 34.375 8.38644 34.375 8.59364V25.5389C33.8752 25.8507 33.3529 26.1249 32.8125 26.3593V10.1561C32.8125 9.94894 32.7302 9.75022 32.5837 9.60371C32.4372 9.4572 32.2385 9.37489 32.0312 9.37489H27.3438V7.81239ZM11.7188 7.03114C11.7188 6.82394 11.8011 6.62522 11.9476 6.47871C12.0941 6.3322 12.2928 6.24989 12.5 6.24989H14.9219C15.1024 6.25172 15.2779 6.19019 15.4178 6.07599C15.5577 5.9618 15.6531 5.80217 15.6875 5.62489C15.8309 4.91846 16.2142 4.28334 16.7723 3.82715C17.3305 3.37096 18.0292 3.12176 18.75 3.12176C19.4708 3.12176 20.1695 3.37096 20.7277 3.82715C21.2858 4.28334 21.6691 4.91846 21.8125 5.62489C21.8469 5.80217 21.9423 5.9618 22.0822 6.07599C22.2221 6.19019 22.3976 6.25172 22.5781 6.24989H25C25.2072 6.24989 25.4059 6.3322 25.5524 6.47871C25.6989 6.62522 25.7812 6.82394 25.7812 7.03114V10.1561H11.7188V7.03114ZM10.9375 11.7186H26.5625C26.7697 11.7186 26.9684 11.6363 27.1149 11.4898C27.2614 11.3433 27.3438 11.1446 27.3438 10.9374H31.25V26.9061C30.2328 27.1919 29.1816 27.3391 28.125 27.3436H27.3438C27.1365 27.3436 26.9378 27.4259 26.7913 27.5725C26.6448 27.719 26.5625 27.9177 26.5625 28.1249V30.4686H13.2812V32.0311H26.5625V35.1561H13.2812V36.7186H26.5625V38.8905C26.5636 39.2092 26.5845 39.5275 26.625 39.8436H13.2812V41.4061H27.0391C27.3761 42.2786 27.8834 43.0753 28.5312 43.7499H6.25V10.9374H10.1562C10.1562 11.1446 10.2386 11.3433 10.3851 11.4898C10.5316 11.6363 10.7303 11.7186 10.9375 11.7186ZM33.5938 46.8749H3.90625C3.69905 46.8749 3.50034 46.7926 3.35382 46.6461C3.20731 46.4996 3.125 46.3008 3.125 46.0936V8.59364C3.125 8.38644 3.20731 8.18772 3.35382 8.04121C3.50034 7.8947 3.69905 7.81239 3.90625 7.81239H10.1562V9.37489H5.46875C5.26155 9.37489 5.06284 9.4572 4.91632 9.60371C4.76981 9.75022 4.6875 9.94894 4.6875 10.1561V44.5311C4.6875 44.7383 4.76981 44.9371 4.91632 45.0836C5.06284 45.2301 5.26155 45.3124 5.46875 45.3124H30.75L33.8906 46.8046C33.7972 46.8472 33.6964 46.871 33.5938 46.8749ZM46.875 38.8905C46.8779 39.8791 46.6109 40.8497 46.1029 41.6977C45.5949 42.5458 44.8651 43.2391 43.9922 43.703L37.5 46.7889L31.0234 43.7108C30.1476 43.2469 29.4149 42.5529 28.9042 41.7035C28.3935 40.8542 28.1241 39.8816 28.125 38.8905V28.9061C30.9978 28.9005 33.7922 27.9691 36.0938 26.2499L37.5 25.1952L38.9062 26.2499C41.2078 27.9691 44.0022 28.9005 46.875 28.9061V38.8905Z" fill="#2C2149"/>
<path d="M23.4375 16.4063H21.0938V14.0625C21.0938 13.8553 21.0114 13.6566 20.8649 13.5101C20.7184 13.3636 20.5197 13.2812 20.3125 13.2812H17.1875C16.9803 13.2812 16.7816 13.3636 16.6351 13.5101C16.4886 13.6566 16.4062 13.8553 16.4062 14.0625V16.4063H14.0625C13.8553 16.4063 13.6566 16.4886 13.5101 16.6351C13.3636 16.7816 13.2812 16.9803 13.2812 17.1875V20.3125C13.2812 20.5197 13.3636 20.7184 13.5101 20.8649C13.6566 21.0114 13.8553 21.0938 14.0625 21.0938H16.4062V23.4375C16.4062 23.6447 16.4886 23.8434 16.6351 23.9899C16.7816 24.1364 16.9803 24.2188 17.1875 24.2188H20.3125C20.5197 24.2188 20.7184 24.1364 20.8649 23.9899C21.0114 23.8434 21.0938 23.6447 21.0938 23.4375V21.0938H23.4375C23.6447 21.0938 23.8434 21.0114 23.9899 20.8649C24.1364 20.7184 24.2188 20.5197 24.2188 20.3125V17.1875C24.2188 16.9803 24.1364 16.7816 23.9899 16.6351C23.8434 16.4886 23.6447 16.4063 23.4375 16.4063ZM22.6562 19.5313H20.3125C20.1053 19.5313 19.9066 19.6136 19.7601 19.7601C19.6136 19.9066 19.5312 20.1053 19.5312 20.3125V22.6563H17.9688V20.3125C17.9688 20.1053 17.8864 19.9066 17.7399 19.7601C17.5934 19.6136 17.3947 19.5313 17.1875 19.5313H14.8438V17.9688H17.1875C17.3947 17.9688 17.5934 17.8864 17.7399 17.7399C17.8864 17.5934 17.9688 17.3947 17.9688 17.1875V14.8438H19.5312V17.1875C19.5312 17.3947 19.6136 17.5934 19.7601 17.7399C19.9066 17.8864 20.1053 17.9688 20.3125 17.9688H22.6562V19.5313Z" fill="#2C2149"/>
<path d="M44.6484 30.2967C42.2255 29.9288 39.9309 28.968 37.9687 27.4998C37.834 27.3971 37.6694 27.3416 37.5 27.3416C37.3306 27.3416 37.166 27.3971 37.0313 27.4998C35.0691 28.968 32.7745 29.9288 30.3516 30.2967C30.1671 30.3259 29.9991 30.4198 29.8775 30.5614C29.7559 30.7031 29.6885 30.8834 29.6875 31.0701V38.8904C29.6878 39.5877 29.8749 40.2721 30.2293 40.8725C30.5838 41.473 31.0927 41.9674 31.7031 42.3045L31.75 42.3279L37.1641 44.8982C37.2686 44.9496 37.3835 44.9763 37.5 44.9763C37.6165 44.9763 37.7314 44.9496 37.8359 44.8982L43.2969 42.3045C43.9066 41.9667 44.415 41.472 44.7694 40.8718C45.1237 40.2715 45.3113 39.5875 45.3125 38.8904V31.0701C45.3115 30.8834 45.2441 30.7031 45.1225 30.5614C45.0009 30.4198 44.8329 30.3259 44.6484 30.2967ZM43.75 38.8904C43.7522 39.3014 43.6447 39.7056 43.4388 40.0612C43.2328 40.4169 42.9357 40.7112 42.5781 40.9138L37.5 43.3279L32.4375 40.9295C32.0769 40.725 31.777 40.4285 31.5684 40.0703C31.3598 39.7121 31.2499 39.3049 31.25 38.8904V31.7263C33.4938 31.2889 35.6222 30.3896 37.5 29.0857C39.3778 30.3896 41.5062 31.2889 43.75 31.7263V38.8904Z" fill="#2C2149"/>
<path d="M34.1461 36.9475L33.0414 38.0522L35.3852 40.3959C35.5317 40.5424 35.7303 40.6247 35.9375 40.6247C36.1447 40.6247 36.3433 40.5424 36.4899 40.3959L42.7399 34.1459L41.6352 33.0413L35.9375 38.7389L34.1461 36.9475Z" fill="#2C2149"/>
</svg>
